<svg xmlns="http://www.w3.org/2000/svg" id="Capa_1" height="512" viewBox="0 0 512 512" width="512"><g><g><path d="m391 271c-66.301 0-120 53.699-120 120 0 66.299 53.699 121 120 121s121-54.701 121-121c0-66.301-54.699-120-121-120z" fill="#f25555"></path></g><path d="m512 391c0 66.299-54.699 121-121 121v-241c66.301 0 121 53.699 121 120z" fill="#d93752"></path><g><g><path d="m391 0c-66.301 0-120 54.699-120 121 0 66.299 53.699 120 120 120s121-53.701 121-120c0-66.301-54.699-121-121-121z" fill="#57d9ad"></path></g></g><path d="m391 241v-241c66.301 0 121 54.699 121 121 0 66.299-54.699 120-121 120z" fill="#26bfa6"></path><g><path d="m121 271c-66.301 0-121 53.699-121 120 0 66.299 54.699 121 121 121s120-54.701 120-121c0-66.301-53.699-120-120-120z" fill="#ffea80"></path></g><path d="m241 391c0 66.299-53.699 121-120 121v-241c66.301 0 120 53.699 120 120z" fill="#fc6"></path><g><path d="m121 0c-66.301 0-121 54.699-121 121 0 66.299 54.699 120 121 120s120-53.701 120-120c0-66.301-53.699-121-120-121z" fill="#f0dbd8"></path></g><path d="m121 241v-241c66.301 0 120 54.699 120 121 0 66.299-53.699 120-120 120z" fill="#d9c3c3"></path><g><path d="m177.7 411.099c-8.701 23.7-31.201 39.901-56.7 39.901s-47.999-16.201-56.7-39.901l28.5-10.201c4.2 12.001 15.601 20.102 28.2 20.102s24-8.101 28.2-20.101z" fill="#80664d"></path></g><g><path d="m136 346h30v30h-30z" fill="#594135"></path></g><g><path d="m76 346h30v30h-30z" fill="#80664d"></path></g><g><path d="m406 346h30v30h-30z" fill="#594135"></path></g><g><path d="m346 346h30v30h-30z" fill="#80664d"></path></g><g><path d="m447.7 430.899-28.5 10.201c-4.2-12.001-15.601-20.1-28.2-20.1s-24 8.099-28.2 20.099l-28.5-10.201c8.701-23.699 31.201-39.898 56.7-39.898s47.999 16.199 56.7 39.899z" fill="#80664d"></path></g><g><path d="m136 76h30v30h-30z" fill="#594135"></path></g><g><path d="m76 76h30v30h-30z" fill="#80664d"></path></g><g><path d="m406 76h30v30h-30z"></path></g><g><path d="m346 76h30v30h-30z"></path></g><g><path d="m76 136h90v30h-90z" fill="#80664d"></path></g><path d="m301 241v30h-30v30h-30v-30h-30v-30h30v-30h30v30z" fill="#80664d"></path><g><path d="m427.599 149.5-60 30-13.198-27 60-30z" fill="#80664d"></path></g><g><path d="m406 76h30v30h-30z" fill="#594135"></path></g><g><path d="m346 76h30v30h-30z" fill="#80664d"></path></g><g fill="#594135"><path d="m121 136h45v30h-45z"></path><path d="m177.7 411.099c-8.701 23.7-31.201 39.901-56.7 39.901v-30c12.599 0 24-8.101 28.2-20.101z"></path><path d="m301 241v30h-30v30h-15v-90h15v30z"></path><path d="m427.599 149.5-36.599 18.3v-33.6l23.401-11.7z"></path><path d="m447.7 430.899-28.5 10.201c-4.2-12.001-15.601-20.1-28.2-20.1v-30c25.499 0 47.999 16.199 56.7 39.899z"></path></g></g></svg>