<svg xmlns="http://www.w3.org/2000/svg" id="Capa_1" height="512" viewBox="0 0 512 512" width="512"><g><path d="m446.128 412.031h-434.87c-6.218 0-11.258-5.041-11.258-11.259v-322.212l21.821-12.362h410.188l25.377 12.362v322.213c0 6.217-5.04 11.258-11.258 11.258z" fill="#f4fbff"></path><path d="m431.481 68.258v332.515c0 6.218-5.04 11.258-11.258 11.258h25.905c6.218 0 11.258-5.04 11.258-11.258v-322.213z" fill="#dfeaef"></path><path d="m446.128 21.653h-434.87c-6.218 0-11.258 5.04-11.258 11.258v45.649h457.386v-45.649c0-6.218-5.04-11.258-11.258-11.258z" fill="#80e29d"></path><path d="m446.128 21.653h-25.905c6.218 0 11.258 5.04 11.258 11.258v45.649h25.905v-45.649c0-6.218-5.04-11.258-11.258-11.258z" fill="#78d090"></path><g><path d="m90.089 57.832h-56.27c-4.268 0-7.726-3.459-7.726-7.726s3.459-7.726 7.726-7.726h56.271c4.268 0 7.726 3.459 7.726 7.726s-3.459 7.726-7.727 7.726z" fill="#78d090"></path></g><path d="m288.582 373.771h-210.886c-4.62 0-8.365-3.745-8.365-8.365v-22.466c0-4.62 3.745-8.365 8.365-8.365h210.886z" fill="#80e29d"></path><path d="m379.69 334.575h-91.108v39.196h91.108c4.62 0 8.365-3.745 8.365-8.365v-22.466c0-4.62-3.745-8.365-8.365-8.365z" fill="#d3f9e2"></path><path d="m264.44 334.575h24.142v39.196h-24.142z" fill="#78d090"></path><path d="m435.381 489.252 74.255-53.949c1.485-1.079 2.365-2.804 2.365-4.641v-105.98c0-3.168-2.568-5.736-5.736-5.736h-148.51c-3.168 0-5.736 2.568-5.736 5.736v105.98c0 1.836.879 3.561 2.365 4.641l74.255 53.949c2.009 1.461 4.731 1.461 6.742 0z" fill="#70b9c6"></path><path d="m506.264 318.946h-25.057v99.75c0 1.836-.879 3.561-2.365 4.641l-70.465 51.195 20.26 14.72c2.01 1.461 4.733 1.461 6.743 0l74.255-53.949c1.485-1.079 2.365-2.804 2.365-4.641v-105.98c0-3.168-2.568-5.736-5.736-5.736z" fill="#61aab7"></path><g><g><path d="m449.148 407.079h-34.278c-4.268 0-7.726-3.459-7.726-7.726v-36.927c0-13.71 11.155-24.865 24.865-24.865s24.865 11.155 24.865 24.865v36.927c0 4.267-3.459 7.726-7.726 7.726zm-26.552-15.453h18.825v-29.2c0-5.19-4.222-9.412-9.412-9.412s-9.412 4.222-9.412 9.412v29.2z" fill="#617881"></path></g><path d="m460.619 436.515h-57.22c-2.344 0-4.244-1.9-4.244-4.244v-43.699c0-2.344 1.9-4.244 4.244-4.244h57.22c2.344 0 4.244 1.9 4.244 4.244v43.699c0 2.344-1.9 4.244-4.244 4.244z" fill="#f6e781"></path><path d="m460.619 384.328h-20.599c2.344 0 4.244 1.9 4.244 4.244v43.699c0 2.344-1.9 4.244-4.244 4.244h20.599c2.344 0 4.244-1.9 4.244-4.244v-43.699c0-2.344-1.9-4.244-4.244-4.244z" fill="#f6e266"></path></g><g><g><path d="m228.693 288.118c-42.302 0-76.716-34.414-76.716-76.716 0-15.373 4.532-30.207 13.106-42.898 2.389-3.536 7.192-4.466 10.727-2.077 3.536 2.388 4.466 7.192 2.077 10.727-6.842 10.128-10.458 21.97-10.458 34.248 0 33.781 27.483 61.264 61.264 61.264 33.782 0 61.265-27.483 61.265-61.264 0-33.782-27.483-61.265-61.265-61.265-4.268 0-7.726-3.459-7.726-7.726s3.459-7.726 7.726-7.726c42.302 0 76.717 34.415 76.717 76.717s-34.415 76.716-76.717 76.716z" fill="#78d090"></path></g><g><path d="m244.404 173.659c-2.056 0-4.108-.816-5.629-2.432l-22.179-23.574c-1.488-1.583-2.241-3.718-2.076-5.883.166-2.166 1.235-4.162 2.947-5.5l25.505-19.929c3.361-2.627 8.217-2.031 10.846 1.331 2.627 3.363 2.031 8.218-1.331 10.846l-18.832 14.714 16.376 17.405c2.924 3.109 2.775 7.998-.333 10.923-1.492 1.404-3.396 2.099-5.294 2.099z" fill="#78d090"></path></g></g></g></svg>