<svg xmlns="http://www.w3.org/2000/svg" xmlns:xlink="http://www.w3.org/1999/xlink" id="Using_Technology" height="512" viewBox="0 0 64 64" width="512" data-name="Using Technology"><linearGradient id="New_Gradient_Swatch_1" gradientUnits="userSpaceOnUse" x1="2.459" x2="57.798" y1="60.283" y2="7.188"><stop offset="0" stop-color="#fff200"></stop><stop offset="1" stop-color="#cd118c"></stop></linearGradient><linearGradient id="New_Gradient_Swatch_1-2" x1="-5.244" x2="50.095" xlink:href="#New_Gradient_Swatch_1" y1="52.254" y2="-.841"></linearGradient><linearGradient id="New_Gradient_Swatch_1-3" x1="-14.931" x2="40.407" xlink:href="#New_Gradient_Swatch_1" y1="42.157" y2="-10.938"></linearGradient><linearGradient id="New_Gradient_Swatch_1-4" x1="-6.064" x2="49.275" xlink:href="#New_Gradient_Swatch_1" y1="51.399" y2="-1.696"></linearGradient><linearGradient id="New_Gradient_Swatch_1-5" x1="-11.975" x2="43.364" xlink:href="#New_Gradient_Swatch_1" y1="45.239" y2="-7.856"></linearGradient><linearGradient id="New_Gradient_Swatch_1-6" x1="-3.586" x2="51.752" xlink:href="#New_Gradient_Swatch_1" y1="53.982" y2=".886"></linearGradient><linearGradient id="New_Gradient_Swatch_1-7" x1="-9.018" x2="46.321" xlink:href="#New_Gradient_Swatch_1" y1="48.321" y2="-4.774"></linearGradient><linearGradient id="New_Gradient_Swatch_1-8" x1="-1.348" x2="53.99" xlink:href="#New_Gradient_Swatch_1" y1="56.314" y2="3.219"></linearGradient><path d="m57.03 30.94 1.99-27.87a1.044 1.044 0 0 0 -.27-.77 1.022 1.022 0 0 0 -.75-.33h-52a1.022 1.022 0 0 0 -.75.33 1.044 1.044 0 0 0 -.27.77l1.99 27.87-4.98 26.87a1.085 1.085 0 0 0 .22.85 1.059 1.059 0 0 0 .79.37h11v1.97a1 1 0 0 0 1 1h10a1 1 0 0 0 1-1v-1.97h12v1.97a1 1 0 0 0 1 1h10a1 1 0 0 0 1-1v-1.97h11a1.059 1.059 0 0 0 .79-.37 1.085 1.085 0 0 0 .22-.85zm-.13-26.91-1.86 25.94h-46.08l-1.86-25.94zm-32.45 49.14a1 1 0 0 0 -.45.83v6h-8v-6a.967.967 0 0 0 -.17-.55l-1.83-2.75v-7.2a.5.5 0 0 1 1 0v2.5a1 1 0 0 0 2 0v-4.5a.5.5 0 0 1 1 0v3.5a1 1 0 0 0 2 0v-5.5a.5.5 0 0 1 1 0v5.5a1 1 0 0 0 2 0v-4.5a.5.5 0 0 1 1 0v7.5a1 1 0 0 0 2 0v-2.5a.5.5 0 0 1 1 0v5.96zm25.05-12.17a2.416 2.416 0 0 0 -.54.06 2.5 2.5 0 0 0 -2.46-2.06 2.416 2.416 0 0 0 -.54.06 2.5 2.5 0 0 0 -4.57-.9 2.647 2.647 0 0 0 -.89-.16 2.5 2.5 0 0 0 -2.5 2.5v2.55a2.734 2.734 0 0 0 -.5-.05 2.522 2.522 0 0 0 -1.97.97h-7.06a2.522 2.522 0 0 0 -1.97-.97 2.734 2.734 0 0 0 -.5.05v-2.55a2.5 2.5 0 0 0 -2.5-2.5 2.647 2.647 0 0 0 -.89.16 2.5 2.5 0 0 0 -4.57.9 2.416 2.416 0 0 0 -.54-.06 2.5 2.5 0 0 0 -2.46 2.06 2.416 2.416 0 0 0 -.54-.06 2.5 2.5 0 0 0 -2.5 2.5v.47h-.87l.8-7.94h40.14l.8 7.94h-.87v-.47a2.5 2.5 0 0 0 -2.5-2.5zm-14.5 8.03v2.97a1 1 0 0 0 .45.83l.21.14h-7.32l.21-.14a1 1 0 0 0 .45-.83v-2.97zm-6-2.06v-.94h6v.94zm9 10h-12v-1.94h12zm10.17-3.52a.967.967 0 0 0 -.17.55v6h-8v-6a1 1 0 0 0 -.45-.83l-2.55-1.71v-5.96a.5.5 0 0 1 1 0v2.5a1 1 0 0 0 2 0v-7.5a.5.5 0 0 1 1 0v4.5a1 1 0 0 0 2 0v-5.5a.5.5 0 0 1 1 0v5.5a1 1 0 0 0 2 0v-3.5a.5.5 0 0 1 1 0v4.5a1 1 0 0 0 2 0v-2.5a.5.5 0 0 1 1 0v7.2zm1.83 3.52v-2.67l1.83-2.75a.967.967 0 0 0 .17-.55v-4.97h2a1.037 1.037 0 0 0 .76-.34 1 1 0 0 0 .26-.79l-1-10a1.022 1.022 0 0 0 -1.02-.93h-42a1.022 1.022 0 0 0 -1.02.93l-1 10a1 1 0 0 0 .26.79 1.037 1.037 0 0 0 .76.34h2v4.97a.967.967 0 0 0 .17.55l1.83 2.75v2.67h-9.77l4.62-24.94h46.3l4.62 24.94z" fill="url(#New_Gradient_Swatch_1)"></path><path d="m53.72 6.31a.975.975 0 0 0 -.72-.31h-42a.975.975 0 0 0 -.72.31 1.025 1.025 0 0 0 -.28.74l1 20a1.007 1.007 0 0 0 1 .95h40a1.007 1.007 0 0 0 1-.95l1-20a1.025 1.025 0 0 0 -.28-.74zm-2.67 19.69h-38.1l-.9-18h39.9z" fill="url(#New_Gradient_Swatch_1-2)"></path><path d="m15 11h3v2h-3z" fill="url(#New_Gradient_Swatch_1-3)"></path><path d="m21 11h28v2h-28z" fill="url(#New_Gradient_Swatch_1-4)"></path><path d="m16 15h5v2h-5z" fill="url(#New_Gradient_Swatch_1-5)"></path><path d="m24 15h24v2h-24z" fill="url(#New_Gradient_Swatch_1-6)"></path><path d="m17 19h7v2h-7z" fill="url(#New_Gradient_Swatch_1-7)"></path><path d="m26 19h21v2h-21z" fill="url(#New_Gradient_Swatch_1-8)"></path></svg>