<svg xmlns="http://www.w3.org/2000/svg" xmlns:xlink="http://www.w3.org/1999/xlink" id="Layer_1" x="0px" y="0px" viewBox="0 0 511.999 511.999" style="enable-background:new 0 0 511.999 511.999;" xml:space="preserve">
<path style="fill:#9BC9FF;" d="M428.616,204.435c-6.686-3.185-13.65-5.872-20.846-8.02c-6.757-2.019-13.719-3.559-20.846-4.582  c-6.811-0.977-13.768-1.497-20.846-1.497c-19.471,0-38.062,3.836-55.057,10.791c-2.614,1.07-5.192,2.214-7.728,3.43  c-8.878,4.253-17.262,9.378-25.04,15.263c-3.334,2.522-6.557,5.184-9.659,7.977c-1.034,0.931-2.055,1.876-3.063,2.836  c-6.044,5.758-11.596,12.028-16.586,18.739c-1.115,1.499-2.201,3.02-3.259,4.561c-2.117,3.084-4.118,6.251-5.998,9.497  c-0.939,1.623-1.85,3.267-2.728,4.929c-0.934,1.766-1.841,3.549-2.703,5.357c-2.247,4.717-4.23,9.578-5.967,14.555  c-0.727,2.078-1.422,4.172-2.055,6.291c-2.018,6.757-3.558,13.722-4.582,20.846c-0.978,6.811-1.495,13.771-1.495,20.846  c0,17.049,2.949,33.419,8.347,48.641c1.28,3.612,2.697,7.16,4.246,10.637c1.55,3.477,3.23,6.882,5.038,10.209  c4,7.353,8.615,14.324,13.771,20.846c26.747,33.837,68.138,55.589,114.519,55.589c80.463,0,145.922-65.46,145.922-145.922  C512,278.164,477.872,227.896,428.616,204.435z"></path>
<path style="fill:#9CDD05;" d="M89.355,308.285c12.296-15.932,27.525-29.486,44.874-39.848c7.21-4.308,14.784-8.066,22.668-11.21  c7.741-3.088,15.779-5.584,24.056-7.438c-19.812-18.268-45.78-28.534-73.079-28.534C48.392,221.256,0,269.648,0,329.131  c0,11.513,9.333,20.846,20.846,20.846h45.308c2.693-7.209,5.888-14.171,9.549-20.846C79.716,321.815,84.287,314.849,89.355,308.285z  "></path>
<g>
	<path style="fill:#EFC27B;" d="M128.721,117.028c0-11.239,2.161-21.976,6.049-31.848c2.607-6.621,5.997-12.844,10.063-18.561   c-10.36-7.618-23.139-12.131-36.958-12.131c-34.483,0-62.538,28.056-62.538,62.539s28.054,62.536,62.538,62.536   c13.817,0,26.595-4.512,36.958-12.13c-4.066-5.717-7.457-11.941-10.064-18.56C130.882,139.001,128.721,128.264,128.721,117.028z"></path>
	<path style="fill:#EFC27B;" d="M215.926,29.821c-29.314,0-55.274,14.553-71.093,36.797c-4.066,5.716-7.456,11.941-10.063,18.561   c-3.888,9.873-6.049,20.61-6.049,31.848c0,11.236,2.161,21.973,6.048,31.846c2.607,6.621,5.998,12.842,10.064,18.56   c15.818,22.244,41.779,36.799,71.093,36.799c48.085,0,87.206-39.12,87.206-87.204S264.012,29.821,215.926,29.821z"></path>
</g>
<path style="fill:#A4E276;" d="M228.504,384.897c-5.398-15.222-8.347-31.591-8.347-48.641c0-7.075,0.517-14.035,1.495-20.846  c1.024-7.124,2.564-14.089,4.582-20.846c0.634-2.119,1.329-4.214,2.055-6.291c1.737-4.977,3.72-9.838,5.968-14.555  c0.862-1.809,1.769-3.591,2.703-5.357c3.512-6.65,7.527-12.993,11.985-18.988c-10.812-2.274-21.862-3.448-33.019-3.448  c-12.011,0-23.713,1.341-34.973,3.865c-8.277,1.854-16.315,4.35-24.056,7.438c-7.884,3.145-15.457,6.903-22.668,11.21  c-17.349,10.362-32.578,23.916-44.874,39.848c-5.067,6.565-9.639,13.53-13.653,20.846c-3.661,6.675-6.857,13.637-9.549,20.846  c-6.489,17.37-10.046,36.162-10.046,55.767c0,11.513,9.333,20.846,20.846,20.846h174.606c-5.156-6.522-9.771-13.493-13.771-20.846  C234.171,399.09,231.065,392.122,228.504,384.897z"></path>
<path style="fill:#1A6FB0;" d="M395.559,336.256l14.739-14.74c8.141-8.14,8.141-21.339,0-29.48c-8.141-8.142-21.339-8.141-29.48,0  l-14.739,14.738l-14.739-14.738c-8.14-8.142-21.338-8.141-29.48,0c-8.141,8.14-8.141,21.339,0,29.48l14.741,14.74l-14.741,14.742  c-8.141,8.14-8.141,21.338,0,29.479c4.071,4.07,9.404,6.108,14.741,6.108c5.332,0,10.669-2.037,14.739-6.109l14.739-14.737  l14.739,14.737c4.072,4.072,9.404,6.109,14.741,6.109c5.332,0,10.669-2.037,14.739-6.108c8.141-8.141,8.141-21.338,0-29.479  L395.559,336.256z"></path>
<path style="fill:#57A4FF;" d="M351.339,380.477c-4.07,4.072-9.407,6.109-14.738,6.109c-5.337,0-10.672-2.037-14.741-6.108  c-8.141-8.141-8.141-21.339,0-29.479l14.741-14.742l-14.741-14.739c-8.141-8.14-8.141-21.339,0-29.48  c8.141-8.141,21.341-8.142,29.48,0l14.739,14.738v-116.44c-47.93,0-90.517,23.246-117.133,59.037  c-4.458,5.995-8.473,12.338-11.985,18.988c-0.934,1.766-1.841,3.549-2.703,5.357c-2.247,4.717-4.23,9.578-5.968,14.555  c-0.727,2.078-1.422,4.172-2.055,6.291c-2.018,6.757-3.556,13.722-4.582,20.846c-0.978,6.811-1.495,13.771-1.495,20.846  c0,17.049,2.949,33.419,8.347,48.641c2.561,7.224,5.667,14.193,9.285,20.846c4,7.353,8.615,14.324,13.771,20.846  c26.747,33.837,68.138,55.589,114.519,55.589V365.739L351.339,380.477z"></path>
<path style="fill:#ECB45C;" d="M144.833,66.619c-4.066,5.716-7.456,11.941-10.063,18.56c-3.888,9.873-6.048,20.61-6.048,31.848  c0,11.236,2.161,21.973,6.048,31.846c2.607,6.621,5.998,12.842,10.064,18.56c15.818,22.244,41.778,36.799,71.093,36.799V29.821  C186.613,29.821,160.653,44.374,144.833,66.619z"></path>
<path style="fill:#64C37D;" d="M156.898,257.226c-7.884,3.145-15.457,6.903-22.668,11.21  c-17.349,10.362-32.578,23.916-44.874,39.848c-5.067,6.565-9.639,13.53-13.653,20.846c-3.661,6.675-6.857,13.637-9.549,20.846  c-6.489,17.37-10.045,36.162-10.045,55.767c0,11.513,9.333,20.846,20.846,20.846h138.973V245.924  c-12.011,0-23.713,1.341-34.973,3.865C172.677,251.644,164.638,254.14,156.898,257.226z"></path>
<path style="fill:#ECB45C;" d="M45.337,117.026c0,34.289,27.743,62.21,61.961,62.523V54.502  C73.08,54.814,45.337,82.736,45.337,117.026z"></path>
<g>
</g>
<g>
</g>
<g>
</g>
<g>
</g>
<g>
</g>
<g>
</g>
<g>
</g>
<g>
</g>
<g>
</g>
<g>
</g>
<g>
</g>
<g>
</g>
<g>
</g>
<g>
</g>
<g>
</g>
</svg>