<svg xmlns="http://www.w3.org/2000/svg" xmlns:xlink="http://www.w3.org/1999/xlink" width="30.549" height="21" viewBox="0 0 30.549 21"><defs><linearGradient id="a" x1="1.166" y1="0.372" x2="0" y2="0.39" gradientUnits="objectBoundingBox"><stop offset="0" stop-color="#5286ff"/><stop offset="1" stop-color="#766df4"/></linearGradient></defs><g transform="translate(-26 -37.057)"><path d="M27,0h7.811c4.48,0,8.111,3.961,8.111,8.848v3.277c0,4.887-3.632,8.848-8.111,8.848H27Z" transform="translate(13.627 37.057)" fill="#2ce9ff"/><path d="M6.243,0h13.8a6.243,6.243,0,0,1,6.243,6.243V6.9a6.243,6.243,0,0,1-6.243,6.243H14.683v3.913L8.324,13.143H6.243A6.243,6.243,0,0,1,0,6.9V6.243A6.243,6.243,0,0,1,6.243,0Z" transform="translate(26 41)" fill="url(#a)"/><path d="M1.5,0A1.5,1.5,0,1,1,0,1.5,1.5,1.5,0,0,1,1.5,0Z" transform="translate(33 46)" fill="#fff"/><path d="M1.5,0A1.5,1.5,0,1,1,0,1.5,1.5,1.5,0,0,1,1.5,0Z" transform="translate(38 46)" fill="#fff"/><path d="M1.5,0A1.5,1.5,0,1,1,0,1.5,1.5,1.5,0,0,1,1.5,0Z" transform="translate(43 46)" fill="#fff"/></g></svg>